<?xml version="1.0" encoding="utf-8"?>
<!-- Generator: Adobe Illustrator 22.1.0, SVG Export Plug-In . SVG Version: 6.00 Build 0)  -->
<svg version="1.1" id="Capa_1" xmlns="http://www.w3.org/2000/svg" xmlns:xlink="http://www.w3.org/1999/xlink" x="0px" y="0px"
	 viewBox="0 0 423.3 423.3" style="enable-background:new 0 0 423.3 423.3;" xml:space="preserve">
<style type="text/css">
	.st0{fill:#EAEAEA;}
	.st1{fill:#344E66;}
	.st2{fill:#FFFFFF;}
	.st3{fill:#396C99;}
	.st4{fill:#A9F255;}
	.st5{fill:#EA3457;}
</style>
<path class="st0" d="M133.1,198l76.9,12.7c27.3,0,49.4,18.9,49.4,42.2v33.9H6.8v-33.9c0-23.3,22.1-42.2,49.4-42.2"/>
<path class="st1" d="M259.4,293.5H6.8c-3.8,0-6.8-3.1-6.8-6.8v-33.9c0-27,25.2-49,56.3-49c3.8,0,6.8,3.1,6.8,6.8s-3.1,6.8-6.8,6.8
	c-23.5,0-42.6,15.9-42.6,35.4v27.1h238.9v-27.1c0-19.5-19.1-35.4-42.6-35.4c-0.4,0-0.7,0-1.1-0.1L132,204.7
	c-3.7-0.6-6.2-4.1-5.6-7.8c0.6-3.7,4.1-6.3,7.8-5.6l76.3,12.6c30.8,0.3,55.7,22.2,55.7,49v33.9C266.2,290.5,263.2,293.5,259.4,293.5
	z"/>
<path class="st2" d="M163.8,198L163.8,198c-19.3,8.6-42.1,8.6-61.4,0l0,0v-47.8h61.4V198z"/>
<path class="st1" d="M133.1,211.2c-11.5,0-23-2.3-33.5-7c-2.5-1.1-4.1-3.5-4.1-6.2v-47.8c0-3.8,3.1-6.8,6.8-6.8h61.4
	c3.8,0,6.8,3.1,6.8,6.8V198c0,2.7-1.6,5.1-4.1,6.2C156.1,208.9,144.6,211.2,133.1,211.2z M163.8,198L163.8,198L163.8,198z
	 M109.2,193.4c15.2,5.6,32.5,5.6,47.8,0V157h-47.8C109.2,157,109.2,193.4,109.2,193.4z"/>
<path class="st2" d="M169.8,163.8H96.5c-15.6,0-28.2-12.6-28.2-28.2V75.1c0-33.9,27.5-61.4,61.4-61.4h6.8
	c33.9,0,61.4,27.5,61.4,61.4v60.5C198,151.2,185.3,163.8,169.8,163.8z"/>
<path class="st1" d="M169.8,170.7H96.5c-19.3,0-35-15.7-35-35V75.1c0-37.6,30.6-68.3,68.3-68.3h6.8c37.6,0,68.3,30.6,68.3,68.3v60.5
	C204.8,154.9,189.1,170.7,169.8,170.7z M129.7,20.5c-30.1,0-54.6,24.5-54.6,54.6v60.5c0,11.8,9.6,21.4,21.4,21.4h73.3
	c11.8,0,21.4-9.6,21.4-21.4V75.1c0-30.1-24.5-54.6-54.6-54.6C136.5,20.5,129.7,20.5,129.7,20.5z"/>
<path class="st3" d="M367,210.7c27.3,0,49.4,18.9,49.4,42.2v33.9H163.8v-33.9c0-23.3,22.1-42.2,49.4-42.2l76.9-12.7"/>
<path class="st1" d="M416.4,293.5H163.8c-3.8,0-6.8-3.1-6.8-6.8v-33.9c0-26.9,24.9-48.7,55.7-49l76.3-12.6c3.8-0.7,7.2,1.9,7.8,5.6
	c0.6,3.7-1.9,7.2-5.6,7.8l-76.9,12.7c-0.4,0.1-0.7,0.1-1.1,0.1c-23.5,0-42.6,15.9-42.6,35.4v27.1h238.9v-27.1
	c0-19.5-19.1-35.4-42.6-35.4c-3.8,0-6.8-3.1-6.8-6.8s3.1-6.8,6.8-6.8c31,0,56.3,22,56.3,49v33.9
	C423.3,290.5,420.2,293.5,416.4,293.5z"/>
<path class="st2" d="M320.9,198L320.9,198c-19.3,8.6-42.1,8.6-61.4,0l0,0v-47.8h61.4V198z"/>
<path class="st1" d="M290.1,211.2c-11.5,0-23-2.3-33.5-7c-2.5-1.1-4.1-3.5-4.1-6.2v-47.8c0-3.8,3.1-6.8,6.8-6.8h61.4
	c3.8,0,6.8,3.1,6.8,6.8V198c0,2.7-1.6,5.1-4.1,6.2C313.1,208.9,301.6,211.2,290.1,211.2z M320.9,198L320.9,198L320.9,198z
	 M266.2,193.4c15.2,5.6,32.5,5.6,47.8,0V157h-47.8V193.4z"/>
<path class="st2" d="M326.8,163.8h-73.3c-15.6,0-28.2-12.6-28.2-28.2V75.1c0-33.9,27.5-61.4,61.4-61.4h6.8
	c33.9,0,61.4,27.5,61.4,61.4v60.5C355,151.2,342.4,163.8,326.8,163.8z"/>
<path class="st1" d="M326.8,170.7h-73.3c-19.3,0-35-15.7-35-35V75.1c0-37.6,30.6-68.3,68.3-68.3h6.8c37.6,0,68.3,30.6,68.3,68.3
	v60.5C361.8,154.9,346.1,170.7,326.8,170.7z M286.7,20.5c-30.1,0-54.6,24.5-54.6,54.6v60.5c0,11.8,9.6,21.4,21.4,21.4h73.3
	c11.8,0,21.4-9.6,21.4-21.4V75.1c0-30.1-24.5-54.6-54.6-54.6C293.5,20.5,286.7,20.5,286.7,20.5z"/>
<path class="st4" d="M341.3,409.6H88.7v-33.9c0-23.3,22.1-42.2,49.4-42.2l76.9-12.7l76.9,12.7c27.3,0,49.4,18.9,49.4,42.2V409.6z"/>
<path class="st1" d="M341.3,416.4H88.7c-3.8,0-6.8-3.1-6.8-6.8v-33.9c0-26.9,24.9-48.7,55.7-49l76.3-12.6c0.7-0.1,1.5-0.1,2.2,0
	l76.3,12.6c30.8,0.3,55.7,22.2,55.7,49v33.9C348.2,413.4,345.1,416.4,341.3,416.4z M95.6,402.8h238.9v-27.1
	c0-19.5-19.1-35.4-42.6-35.4c-0.4,0-0.7,0-1.1-0.1L215,327.8l-75.7,12.5c-0.4,0.1-0.7,0.1-1.1,0.1c-23.5,0-42.6,15.9-42.6,35.4
	L95.6,402.8L95.6,402.8z"/>
<path class="st2" d="M245.8,320.9L245.8,320.9c-19.3,8.6-42.1,8.6-61.4,0l0,0v-47.8h61.4V320.9z"/>
<path class="st1" d="M215,334.1c-11.5,0-23-2.3-33.5-7c-2.5-1.1-4.1-3.5-4.1-6.2v-47.8c0-3.8,3.1-6.8,6.8-6.8h61.4
	c3.8,0,6.8,3.1,6.8,6.8v47.8c0,2.7-1.6,5.1-4.1,6.2C238,331.8,226.5,334.1,215,334.1z M245.8,320.9L245.8,320.9L245.8,320.9z
	 M191.1,316.3c15.2,5.6,32.5,5.6,47.8,0v-36.4h-47.8V316.3z"/>
<path class="st2" d="M251.7,286.7h-73.3c-15.6,0-28.2-12.6-28.2-28.2V198c0-33.9,27.5-61.4,61.4-61.4h6.8
	c33.9,0,61.4,27.5,61.4,61.4v60.5C279.9,274.1,267.3,286.7,251.7,286.7z"/>
<path class="st1" d="M251.7,293.5h-73.3c-19.3,0-35-15.7-35-35V198c0-37.6,30.6-68.3,68.3-68.3h6.8c37.6,0,68.3,30.6,68.3,68.3v60.5
	C286.7,277.8,271,293.5,251.7,293.5z M211.6,143.4c-30.1,0-54.6,24.5-54.6,54.6v60.5c0,11.8,9.6,21.4,21.4,21.4h73.3
	c11.8,0,21.4-9.6,21.4-21.4V198c0-30.1-24.5-54.6-54.6-54.6H211.6z"/>
<g>
	<path class="st5" d="M211.6,368.6c-97.9,0-177.5-79.6-177.5-177.5S113.8,13.7,211.6,13.7s177.5,79.6,177.5,177.5
		S309.5,368.6,211.6,368.6z M211.6,27.3c-90.3,0-163.8,73.5-163.8,163.8S121.3,355,211.6,355s163.8-73.5,163.8-163.8
		S302,27.3,211.6,27.3z"/>
	<path class="st5" d="M211.6,47.8c-3.8,0-6.8-3.1-6.8-6.8V20.5c0-3.8,3.1-6.8,6.8-6.8s6.8,3.1,6.8,6.8V41
		C218.5,44.7,215.4,47.8,211.6,47.8z"/>
	<path class="st5" d="M211.6,368.6c-3.8,0-6.8-3.1-6.8-6.8v-20.5c0-3.8,3.1-6.8,6.8-6.8s6.8,3.1,6.8,6.8v20.5
		C218.5,365.6,215.4,368.6,211.6,368.6z"/>
	<path class="st5" d="M61.4,191.1H41c-3.8,0-6.8-3.1-6.8-6.8s3.1-6.8,6.8-6.8h20.5c3.8,0,6.8,3.1,6.8,6.8S65.2,191.1,61.4,191.1z"/>
	<path class="st5" d="M382.3,191.1h-20.5c-3.8,0-6.8-3.1-6.8-6.8s3.1-6.8,6.8-6.8h20.5c3.8,0,6.8,3.1,6.8,6.8
		S386.1,191.1,382.3,191.1z"/>
</g>
</svg>
