<?xml version="1.0" encoding="utf-8"?>
<!-- Generator: Adobe Illustrator 22.1.0, SVG Export Plug-In . SVG Version: 6.00 Build 0)  -->
<svg version="1.1" id="Capa_1" xmlns="http://www.w3.org/2000/svg" xmlns:xlink="http://www.w3.org/1999/xlink" x="0px" y="0px"
	 viewBox="0 0 430.1 430.1" style="enable-background:new 0 0 430.1 430.1;" xml:space="preserve">
<style type="text/css">
	.st0{fill:#FFFFFF;}
	.st1{fill:#344E66;}
	.st2{fill:#396C99;}
	.st3{fill:#A9F255;}
	.st4{fill:#55BAE6;}
</style>
<path class="st0" d="M176.4,148.4C66.9,176.3,27.3,273.1,27.3,273.1C-18.8,155,104.3,75.9,131,60.4l-22.8-44.2
	c-3.5-6.7-0.4-10.8,6.9-8.9l138.5,34.4c7.3,1.8,11,9,8.3,16l-52,133.6c-2.7,7-7.8,7.3-11.3,0.5L176.4,148.4z"/>
<path class="st1" d="M27.3,279.9C27.3,279.9,27.2,279.9,27.3,279.9c-2.9,0-5.3-1.7-6.4-4.3C-24.5,159.2,86.9,79.4,122,57.8
	l-19.8-38.5c-4.2-8.1-1.3-13.3,0.1-15.1c1.4-1.8,5.7-5.8,14.5-3.6L255.3,35c5.4,1.4,9.8,4.7,12.3,9.5c2.5,4.7,2.7,10.4,0.7,15.6
	l-52,133.6c-3.3,8.5-9,9.7-11.3,9.8c-2.3,0.1-8.2-0.5-12.3-8.6l-19.8-38.4C72.1,184.8,34,274.7,33.6,275.7
	C32.5,278.2,30,279.9,27.3,279.9z M114.9,14.2l22.2,43c1.7,3.2,0.5,7.2-2.6,9C111,79.9,0.3,150.4,28.6,255.2
	c16.3-29.2,60.1-91.4,146.1-113.4c3.1-0.8,6.3,0.7,7.8,3.5l21.7,42.1l51.5-132.2c0.6-1.6,0.6-3.1-0.1-4.4c-0.7-1.3-1.9-2.2-3.5-2.5
	L114.9,14.2z"/>
<path class="st2" d="M253.7,281.6C363.2,253.8,402.8,157,402.8,157c46.1,118.1-77,197.2-103.7,212.7l22.8,44.2
	c3.5,6.7,0.4,10.8-6.9,8.9l-138.5-34.4c-7.3-1.8-11-9-8.3-16l52-133.6c2.7-7,7.8-7.3,11.3-0.5L253.7,281.6z"/>
<path class="st1" d="M318.1,430.1c-1.4,0-3-0.2-4.8-0.6l-138.5-34.4c-5.4-1.3-9.8-4.7-12.3-9.5c-2.5-4.7-2.7-10.4-0.7-15.6l52-133.6
	c3.3-8.5,9-9.7,11.3-9.8c2.3-0.1,8.2,0.5,12.3,8.6l19.8,38.4c101-28.4,138.8-118.3,139.2-119.2c1.1-2.6,3.6-4.2,6.3-4.2
	c0,0,0,0,0.1,0c2.8,0,5.3,1.7,6.3,4.3c45.4,116.4-66,196.1-101.1,217.7l19.8,38.5c4.2,8.1,1.3,13.3-0.1,15.1
	C326.6,427.3,323.6,430.1,318.1,430.1z M226,242.7l-51.5,132.2c-0.6,1.6-0.6,3.1,0.1,4.4c0.7,1.3,1.9,2.1,3.4,2.5l137.1,34l-22.2-43
	c-1.7-3.2-0.5-7.2,2.6-9c23.5-13.6,134.1-84.2,105.9-188.9c-16.3,29.2-60.1,91.4-146.1,113.3c-3.1,0.8-6.3-0.7-7.8-3.5L226,242.7z"
	/>
<g>
	<g>
		<circle class="st3" cx="344.7" cy="102.4" r="34.1"/>
		<path class="st3" d="M344.7,143.4c-22.6,0-41-18.4-41-41s18.4-41,41-41s41,18.4,41,41S367.3,143.4,344.7,143.4z M344.7,75.1
			c-15.1,0-27.3,12.3-27.3,27.3s12.2,27.3,27.3,27.3s27.3-12.3,27.3-27.3S359.8,75.1,344.7,75.1z"/>
	</g>
</g>
<g>
	<g>
		<circle class="st4" cx="71.7" cy="341.3" r="34.1"/>
		<path class="st4" d="M71.7,382.3c-22.6,0-41-18.4-41-41c0-22.6,18.4-41,41-41s41,18.4,41,41S94.3,382.3,71.7,382.3z M71.7,314
			c-15.1,0-27.3,12.3-27.3,27.3c0,15.1,12.2,27.3,27.3,27.3S99,356.4,99,341.3C99,326.3,86.7,314,71.7,314z"/>
	</g>
</g>
</svg>
