<?xml version="1.0" encoding="utf-8"?>
<!-- Generator: Adobe Illustrator 22.1.0, SVG Export Plug-In . SVG Version: 6.00 Build 0)  -->
<svg version="1.1" id="Capa_1" xmlns="http://www.w3.org/2000/svg" xmlns:xlink="http://www.w3.org/1999/xlink" x="0px" y="0px"
	 viewBox="0 0 382.3 382.3" style="enable-background:new 0 0 382.3 382.3;" xml:space="preserve">
<style type="text/css">
	.st0{fill:#FFFFFF;}
	.st1{fill:#344E66;}
	.st2{fill:#55BAE6;}
	.st3{fill:#A9F255;}
	.st4{fill:#EA3457;}
</style>
<rect x="6.8" y="191.1" class="st0" width="184.3" height="184.3"/>
<path class="st1" d="M191.1,382.3H6.8c-3.8,0-6.8-3.1-6.8-6.8V191.1c0-3.8,3.1-6.8,6.8-6.8h184.3c3.8,0,6.8,3.1,6.8,6.8v184.3
	C198,379.2,194.9,382.3,191.1,382.3z M13.7,368.6h170.7V198H13.7V368.6z"/>
<rect x="6.8" y="6.8" class="st0" width="184.3" height="184.3"/>
<path class="st1" d="M191.1,198H6.8c-3.8,0-6.8-3.1-6.8-6.8V6.8C0,3.1,3.1,0,6.8,0h184.3c3.8,0,6.8,3.1,6.8,6.8v184.3
	C198,194.9,194.9,198,191.1,198z M13.7,184.3h170.7V13.7H13.7V184.3z"/>
<g>
	<g>
		<polyline class="st2" points="375.5,244.4 375.5,375.5 191.1,375.5 191.1,191.1 375.5,191.1 		"/>
	</g>
</g>
<path class="st1" d="M375.5,382.3H191.1c-3.8,0-6.8-3.1-6.8-6.8V191.1c0-3.8,3.1-6.8,6.8-6.8h184.3c3.8,0,6.8,3.1,6.8,6.8
	s-3.1,6.8-6.8,6.8H198v170.7h170.7V244.4c0-3.8,3.1-6.8,6.8-6.8s6.8,3.1,6.8,6.8v131.1C382.3,379.2,379.2,382.3,375.5,382.3z"/>
<rect x="191.1" y="6.8" class="st0" width="184.3" height="184.3"/>
<path class="st1" d="M375.5,198H191.1c-3.8,0-6.8-3.1-6.8-6.8V6.8c0-3.8,3.1-6.8,6.8-6.8h184.3c3.8,0,6.8,3.1,6.8,6.8v184.3
	C382.3,194.9,379.2,198,375.5,198z M198,184.3h170.7V13.7H198V184.3z"/>
<g>
	<g>
		<rect x="41" y="41" class="st3" width="116.1" height="116.1"/>
		<path class="st3" d="M157,163.8H41c-3.8,0-6.8-3.1-6.8-6.8V41c0-3.8,3.1-6.8,6.8-6.8H157c3.8,0,6.8,3.1,6.8,6.8V157
			C163.8,160.8,160.8,163.8,157,163.8z M47.8,150.2h102.4V47.8H47.8C47.8,47.8,47.8,150.2,47.8,150.2z"/>
	</g>
</g>
<g>
	<rect x="245.8" y="61.4" class="st4" width="75.1" height="75.1"/>
	<path class="st4" d="M320.9,143.4h-75.1c-3.8,0-6.8-3.1-6.8-6.8V61.4c0-3.8,3.1-6.8,6.8-6.8h75.1c3.8,0,6.8,3.1,6.8,6.8v75.1
		C327.7,140.3,324.6,143.4,320.9,143.4z M252.6,129.7H314V68.3h-61.4V129.7z"/>
</g>
</svg>
