<?xml version="1.0" encoding="utf-8"?>
<!-- Generator: Adobe Illustrator 22.1.0, SVG Export Plug-In . SVG Version: 6.00 Build 0)  -->
<svg version="1.1" id="Capa_1" xmlns="http://www.w3.org/2000/svg" xmlns:xlink="http://www.w3.org/1999/xlink" x="0px" y="0px"
	 viewBox="0 0 402.8 402.8" style="enable-background:new 0 0 402.8 402.8;" xml:space="preserve">
<style type="text/css">
	.st0{fill:#EA3457;}
	.st1{fill:#344E66;}
	.st2{fill:#FFFFFF;}
	.st3{fill:#55BAE6;}
	.st4{fill:#396C99;}
	.st5{fill:#A9F255;}
</style>
<path class="st0" d="M262.8,279.9H10.3V246c0-23.3,22.1-42.2,49.4-42.2l76.9-12.7l76.9,12.7c27.3,0,49.4,18.9,49.4,42.2L262.8,279.9
	L262.8,279.9z"/>
<path class="st1" d="M262.8,286.7H10.3c-3.8,0-6.8-3.1-6.8-6.8V246c0-26.9,24.9-48.7,55.7-49l76.3-12.6c0.7-0.1,1.5-0.1,2.2,0
	L214,197c30.8,0.3,55.7,22.2,55.7,49v33.9C269.7,283.7,266.6,286.7,262.8,286.7z M17.1,273.1H256V246c0-19.5-19.1-35.4-42.6-35.4
	c-0.4,0-0.7,0-1.1-0.1l-75.8-12.5l-75.8,12.5c-0.4,0.1-0.7,0.1-1.1,0.1c-23.5,0-42.6,15.9-42.6,35.4L17.1,273.1L17.1,273.1z"/>
<path class="st2" d="M167.3,191.1L167.3,191.1c-19.3,8.6-42.1,8.6-61.4,0l0,0v-47.8h61.4V191.1z"/>
<path class="st1" d="M136.5,204.4c-11.5,0-23-2.3-33.5-7c-2.5-1.1-4.1-3.5-4.1-6.2v-47.8c0-3.8,3.1-6.8,6.8-6.8h61.4
	c3.8,0,6.8,3.1,6.8,6.8v47.8c0,2.7-1.6,5.1-4.1,6.2C159.6,202,148,204.4,136.5,204.4z M167.3,191.1L167.3,191.1L167.3,191.1z
	 M112.7,186.6c15.2,5.6,32.5,5.6,47.8,0v-36.4h-47.8V186.6z"/>
<path class="st2" d="M173.2,157H99.9c-15.6,0-28.2-12.6-28.2-28.2V68.3c0-33.9,27.5-61.4,61.4-61.4h6.8c33.9,0,61.4,27.5,61.4,61.4
	v60.5C201.4,144.4,188.8,157,173.2,157z"/>
<path class="st1" d="M173.2,163.8H99.9c-19.3,0-35-15.7-35-35V68.3C64.9,30.6,95.5,0,133.1,0h6.8c37.6,0,68.3,30.6,68.3,68.3v60.5
	C208.2,148.1,192.5,163.8,173.2,163.8z M133.1,13.7c-30.1,0-54.6,24.5-54.6,54.6v60.5c0,11.8,9.6,21.4,21.4,21.4h73.3
	c11.8,0,21.4-9.6,21.4-21.4V68.3c0-30.1-24.5-54.6-54.6-54.6C140,13.7,133.1,13.7,133.1,13.7z"/>
<path class="st3" d="M343.1,319.9c27.3,0,49.4,18.9,49.4,42.2l0,33.9L140,395.9l0-33.9c0-23.3,22.1-42.2,49.4-42.2l76.9-12.7"/>
<path class="st1" d="M392.5,402.8L392.5,402.8L140,402.7c-3.8,0-6.8-3.1-6.8-6.8l0-33.9c0-26.9,24.9-48.7,55.7-49l76.3-12.6
	c3.7-0.6,7.2,1.9,7.8,5.6s-1.9,7.2-5.6,7.8l-76.9,12.7c-0.4,0.1-0.7,0.1-1.1,0.1l0,0c0,0,0,0,0,0c-23.5,0-42.6,15.9-42.6,35.3
	l0,27.1l238.9,0.1l0-27.1c0-19.5-19.1-35.4-42.6-35.4c-3.8,0-6.8-3.1-6.8-6.8s3.1-6.8,6.8-6.8c0,0,0,0,0,0c31,0,56.3,22,56.3,49
	l0,33.9c0,1.8-0.7,3.5-2,4.8S394.4,402.8,392.5,402.8z"/>
<path class="st2" d="M297,307.2L297,307.2c-19.3,8.6-42.1,8.6-61.4,0l0,0v-47.8H297V307.2z"/>
<path class="st1" d="M266.3,320.4c-11.5,0-23-2.3-33.5-7c-2.5-1.1-4.1-3.5-4.1-6.2v-47.8c0-3.8,3.1-6.8,6.8-6.8H297
	c3.8,0,6.8,3.1,6.8,6.8v47.8c0,2.7-1.6,5.1-4.1,6.2C289.3,318.1,277.8,320.4,266.3,320.4z M297,307.2L297,307.2L297,307.2z
	 M242.4,302.6c15.2,5.6,32.5,5.6,47.8,0v-36.4h-47.8L242.4,302.6L242.4,302.6z"/>
<path class="st2" d="M302.9,273.1h-73.3c-15.6,0-28.2-12.6-28.2-28.2v-60.5c0-33.9,27.5-61.4,61.4-61.4h6.8
	c33.9,0,61.4,27.5,61.4,61.4v60.5C331.1,260.4,318.5,273.1,302.9,273.1z"/>
<path class="st1" d="M302.9,279.9h-73.3c-19.3,0-35-15.7-35-35v-60.5c0-37.6,30.6-68.3,68.3-68.3h6.8c37.6,0,68.3,30.6,68.3,68.3
	v60.5C337.9,264.2,322.2,279.9,302.9,279.9z M262.8,129.7c-30.1,0-54.6,24.5-54.6,54.6v60.5c0,11.8,9.6,21.4,21.4,21.4h73.3
	c11.8,0,21.4-9.6,21.4-21.4v-60.5c0-30.1-24.5-54.6-54.6-54.6H262.8L262.8,129.7z"/>
<g>
	<path class="st0" d="M23.9,317.4c-3.8,0-6.8-3.1-6.8-6.8v-10.2c0-3.8,3.1-6.8,6.8-6.8s6.8,3.1,6.8,6.8v10.2
		C30.7,314.4,27.7,317.4,23.9,317.4z"/>
	<path class="st0" d="M23.9,356.5c-3.8,0-6.8-3.1-6.8-6.8V333c0-3.8,3.1-6.8,6.8-6.8s6.8,3.1,6.8,6.8v16.8
		C30.7,353.5,27.7,356.5,23.9,356.5z"/>
	<path class="st0" d="M34.1,389.1H23.9c-3.8,0-6.8-3.1-6.8-6.8v-10.2c0-3.8,3.1-6.8,6.8-6.8s6.8,3.1,6.8,6.8v3.4h3.4
		c3.8,0,6.8,3.1,6.8,6.8S37.9,389.1,34.1,389.1z"/>
	<path class="st0" d="M77.6,389.1H59c-3.8,0-6.8-3.1-6.8-6.8s3.1-6.8,6.8-6.8h18.6c3.8,0,6.8,3.1,6.8,6.8S81.4,389.1,77.6,389.1z"/>
	<path class="st0" d="M112.7,389.1h-10.2c-3.8,0-6.8-3.1-6.8-6.8s3.1-6.8,6.8-6.8h10.2c3.8,0,6.8,3.1,6.8,6.8
		C119.5,386.1,116.4,389.1,112.7,389.1z"/>
</g>
<circle class="st1" cx="501.4" cy="161.6" r="42.3"/>
<circle class="st4" cx="515.5" cy="175.7" r="42.3"/>
<circle class="st3" cx="529.6" cy="189.8" r="42.3"/>
<circle class="st5" cx="543.7" cy="203.9" r="42.3"/>
</svg>
