<?xml version="1.0" encoding="utf-8"?>
<!-- Generator: Adobe Illustrator 22.1.0, SVG Export Plug-In . SVG Version: 6.00 Build 0)  -->
<svg version="1.1" id="Capa_1" xmlns="http://www.w3.org/2000/svg" xmlns:xlink="http://www.w3.org/1999/xlink" x="0px" y="0px"
	 viewBox="0 0 436.9 436.9" style="enable-background:new 0 0 436.9 436.9;" xml:space="preserve">
<style type="text/css">
	.st0{fill:#A9F255;}
	.st1{fill:#FFFFFF;}
	.st2{fill:#344E66;}
	.st3{fill:#396C99;}
	.st4{fill:#55BAE6;}
</style>
<g>
	<g>
		<circle class="st0" cx="218.5" cy="276.5" r="95.6"/>
		<path class="st0" d="M218.5,378.9c-56.5,0-102.4-45.9-102.4-102.4S162,174.1,218.5,174.1S320.9,220,320.9,276.5
			S274.9,378.9,218.5,378.9z M218.5,187.8c-48.9,0-88.7,39.8-88.7,88.7s39.8,88.7,88.7,88.7s88.7-39.8,88.7-88.7
			S267.4,187.8,218.5,187.8z"/>
	</g>
</g>
<path class="st1" d="M300.4,267c6.9,1.6,12.7,3.7,16.5,6.6c18.3,14.2,60.2,98.1,85.9,91.3c29.1-7.7,36-75.3,15.6-151
	S385.9,79.6,353.3,70c-12.5-3.7-38-11.3-65.1,4.7c-27,16-112.5,16-139.5,0S96.2,66.2,83.6,70C51.1,79.6,39,138.2,18.6,213.9
	s-13.5,143.3,15.6,151c25.7,6.8,67.6-77.1,85.9-91.3c12.7-9.8,48.8-10.8,72.4-10.5l61.3,0"/>
<path class="st2" d="M37.3,372.1c-1.6,0-3.3-0.2-4.9-0.6c-8.3-2.2-15.2-8-20.6-17.2C-4,326.8-3.9,271,12,212.1
	c2.1-7.8,4.1-15.4,6.1-22.8C35.9,121.9,48.8,73.1,81.7,63.4c13.3-3.9,40.9-12.1,70.5,5.4c24.8,14.7,107.8,14.7,132.6,0
	c29.5-17.5,57.1-9.4,70.4-5.4c33,9.8,45.9,58.5,63.8,125.9c2,7.4,4,15,6.1,22.8c15.9,58.9,16,114.7,0.1,142.1
	c-5.3,9.2-12.2,15-20.6,17.2c-21.5,5.7-44.9-28.2-67.5-60.9c-9.7-14-18.9-27.3-24.4-31.6c-1.9-1.4-5.7-3.5-13.8-5.3
	c-3.7-0.8-6-4.5-5.2-8.2c0.8-3.7,4.5-6,8.2-5.2c8.6,1.9,14.8,4.5,19.2,7.9c7.2,5.6,16.5,19,27.2,34.6c15.2,22,40.5,58.8,52.7,55.5
	c4.7-1.2,8.8-4.9,12.2-10.9c13.9-24.1,13.3-77-1.5-131.7c-2.1-7.8-4.1-15.4-6.1-22.8C389.6,132,376.9,84.1,351.3,76.5
	c-12.4-3.7-35.2-10.4-59.6,4.1C262.3,98,174.7,98,145.2,80.6c-24.4-14.5-47.3-7.7-59.6-4.1C60,84.1,47.3,132,31.2,192.8
	c-2,7.4-4,15-6.1,22.8c-14.8,54.7-15.4,107.7-1.5,131.7c3.4,6,7.6,9.6,12.2,10.9c12.3,3.4,37.6-33.5,52.7-55.5
	c10.8-15.6,20.1-29.1,27.2-34.6c11.1-8.6,36.2-12.5,76.7-11.9l61.2,0h0c3.8,0,6.8,3.1,6.8,6.8c0,3.8-3.1,6.8-6.8,6.8l-61.3,0
	c-48.3-0.6-63.5,5.4-68.2,9.1c-5.5,4.3-14.7,17.5-24.4,31.6C79,340.8,57.4,372.1,37.3,372.1z"/>
<g>
	<g>
		<circle class="st3" cx="300.4" cy="119.5" r="20.5"/>
		<path class="st3" d="M300.4,146.8c-15.1,0-27.3-12.2-27.3-27.3s12.3-27.3,27.3-27.3c15.1,0,27.3,12.2,27.3,27.3
			S315.4,146.8,300.4,146.8z M300.4,105.8c-7.5,0-13.7,6.1-13.7,13.7s6.1,13.7,13.7,13.7c7.5,0,13.7-6.1,13.7-13.7
			S307.9,105.8,300.4,105.8z"/>
	</g>
</g>
<circle class="st0" cx="300.4" cy="201.4" r="20.5"/>
<path class="st2" d="M300.4,228.7c-15.1,0-27.3-12.2-27.3-27.3s12.3-27.3,27.3-27.3c15.1,0,27.3,12.2,27.3,27.3
	C327.7,216.5,315.4,228.7,300.4,228.7z M300.4,187.8c-7.5,0-13.7,6.1-13.7,13.7s6.1,13.7,13.7,13.7c7.5,0,13.7-6.1,13.7-13.7
	C314,193.9,307.9,187.8,300.4,187.8z"/>
<g>
	<g>
		<circle class="st0" cx="252.6" cy="160.5" r="20.5"/>
		<path class="st0" d="M252.6,187.8c-15.1,0-27.3-12.2-27.3-27.3s12.3-27.3,27.3-27.3c15.1,0,27.3,12.2,27.3,27.3
			C279.9,175.5,267.7,187.8,252.6,187.8z M252.6,146.8c-7.5,0-13.7,6.1-13.7,13.7s6.1,13.7,13.7,13.7s13.7-6.1,13.7-13.7
			C266.3,152.9,260.1,146.8,252.6,146.8z"/>
	</g>
</g>
<circle class="st4" cx="348.2" cy="160.5" r="20.5"/>
<path class="st2" d="M348.2,187.8c-15.1,0-27.3-12.2-27.3-27.3s12.3-27.3,27.3-27.3s27.3,12.2,27.3,27.3
	C375.5,175.5,363.2,187.8,348.2,187.8z M348.2,146.8c-7.5,0-13.7,6.1-13.7,13.7s6.1,13.7,13.7,13.7s13.7-6.1,13.7-13.7
	C361.8,152.9,355.7,146.8,348.2,146.8z"/>
<circle class="st4" cx="88.8" cy="140" r="20.5"/>
<path class="st2" d="M88.8,167.3c-15.1,0-27.3-12.2-27.3-27.3s12.3-27.3,27.3-27.3s27.3,12.2,27.3,27.3S103.8,167.3,88.8,167.3z
	 M88.8,126.3c-7.5,0-13.7,6.1-13.7,13.7s6.1,13.7,13.7,13.7s13.7-6.1,13.7-13.7C102.4,132.4,96.3,126.3,88.8,126.3z"/>
<circle class="st3" cx="157" cy="215.1" r="20.5"/>
<path class="st2" d="M157,242.4c-15.1,0-27.3-12.2-27.3-27.3c0-15.1,12.3-27.3,27.3-27.3s27.3,12.2,27.3,27.3
	C184.3,230.1,172.1,242.4,157,242.4z M157,201.4c-7.5,0-13.7,6.1-13.7,13.7s6.1,13.7,13.7,13.7s13.7-6.1,13.7-13.7
	S164.6,201.4,157,201.4z"/>
<g>
	<g>
		<path class="st4" d="M88.8,242.4c-3.8,0-6.8-3.1-6.8-6.8v-41c0-3.8,3.1-6.8,6.8-6.8s6.8,3.1,6.8,6.8v41
			C95.6,239.3,92.5,242.4,88.8,242.4z"/>
		<path class="st4" d="M109.2,221.9h-41c-3.8,0-6.8-3.1-6.8-6.8s3.1-6.8,6.8-6.8h41c3.8,0,6.8,3.1,6.8,6.8S113,221.9,109.2,221.9z"
			/>
	</g>
</g>
</svg>
