<svg xmlns="http://www.w3.org/2000/svg" viewBox="0 0 128 128"><defs><style>.a,.b{fill:#fff;}.a{opacity:0.22;}</style></defs><g transform="translate(-1284 -464)"><circle class="a" cx="64" cy="64" r="64" transform="translate(1284 464)"/><path class="b" d="M-4649,183a55.648,55.648,0,0,1-21.8-4.4,55.814,55.814,0,0,1-17.8-12,55.8,55.8,0,0,1-12-17.8A55.645,55.645,0,0,1-4705,127a55.642,55.642,0,0,1,4.4-21.8,55.8,55.8,0,0,1,12-17.8,55.814,55.814,0,0,1,17.8-12A55.649,55.649,0,0,1-4649,71a55.645,55.645,0,0,1,21.8,4.4,55.817,55.817,0,0,1,17.8,12,55.8,55.8,0,0,1,12,17.8A55.642,55.642,0,0,1-4593,127a55.646,55.646,0,0,1-4.4,21.8,55.8,55.8,0,0,1-12,17.8,55.806,55.806,0,0,1-17.8,12A55.644,55.644,0,0,1-4649,183Zm-9.333-72.1v32.2l28-16.1-28-16.1Z" transform="translate(5997 401)"/></g></svg>