<?xml version="1.0" encoding="utf-8"?>
<!-- Generator: Adobe Illustrator 22.1.0, SVG Export Plug-In . SVG Version: 6.00 Build 0)  -->
<svg version="1.1" id="Capa_1" xmlns="http://www.w3.org/2000/svg" xmlns:xlink="http://www.w3.org/1999/xlink" x="0px" y="0px"
	 viewBox="0 0 416.4 416.4" style="enable-background:new 0 0 416.4 416.4;" xml:space="preserve">
<style type="text/css">
	.st0{fill:#EAEAEA;}
	.st1{fill:#344E66;}
	.st2{fill:#FFFFFF;}
	.st3{fill:#A9F255;}
	.st4{fill:#55BAE6;}
	.st5{fill:#396C99;}
</style>
<circle class="st0" cx="208.2" cy="232.1" r="177.5"/>
<path class="st1" d="M208.2,416.4c-101.6,0-184.3-82.7-184.3-184.3S106.6,47.8,208.2,47.8s184.3,82.7,184.3,184.3
	S309.8,416.4,208.2,416.4z M208.2,61.4c-94.1,0-170.7,76.6-170.7,170.7s76.6,170.7,170.7,170.7s170.7-76.6,170.7-170.7
	S302.3,61.4,208.2,61.4z"/>
<circle class="st2" cx="208.2" cy="232.1" r="143.4"/>
<path class="st1" d="M208.2,382.3C125.4,382.3,58,314.9,58,232.1S125.4,81.9,208.2,81.9s150.2,67.4,150.2,150.2
	S291,382.3,208.2,382.3z M208.2,95.6c-75.3,0-136.5,61.2-136.5,136.5s61.2,136.5,136.5,136.5s136.5-61.2,136.5-136.5
	S283.5,95.6,208.2,95.6z"/>
<path class="st3" d="M324.3,232.1c0-64.1-52-116.1-116.1-116.1v116.1H324.3z"/>
<rect x="194.6" y="27.3" class="st3" width="27.3" height="27.3"/>
<path class="st1" d="M221.9,61.4h-27.3c-3.8,0-6.8-3.1-6.8-6.8V27.3c0-3.8,3.1-6.8,6.8-6.8h27.3c3.8,0,6.8,3.1,6.8,6.8v27.3
	C228.7,58.4,225.6,61.4,221.9,61.4z M201.4,47.8H215V34.1h-13.7V47.8z"/>
<rect x="180.9" y="6.8" class="st3" width="54.6" height="20.5"/>
<path class="st1" d="M235.5,34.1h-54.6c-3.8,0-6.8-3.1-6.8-6.8V6.8c0-3.8,3.1-6.8,6.8-6.8h54.6c3.8,0,6.8,3.1,6.8,6.8v20.5
	C242.3,31.1,239.3,34.1,235.5,34.1z M187.7,20.5h41v-6.8h-41V20.5z"/>
<path class="st4" d="M365.2,102.4c-1.4,0-2.9-0.4-4.1-1.4l-54.6-41c-3-2.3-3.6-6.5-1.4-9.6c2.3-3,6.5-3.6,9.6-1.4l54.6,41
	c3,2.3,3.6,6.5,1.4,9.6C369.3,101.5,367.3,102.4,365.2,102.4z"/>
<circle class="st1" cx="604.5" cy="149.4" r="74.3"/>
<circle class="st5" cx="629.3" cy="174.1" r="74.3"/>
<circle class="st4" cx="654" cy="198.9" r="74.3"/>
<circle class="st3" cx="678.8" cy="223.7" r="74.3"/>
</svg>
